<?xml version="1.0" encoding="UTF-8" standalone="no"?><!DOCTYPE svg PUBLIC "-//W3C//DTD SVG 1.1//EN" "http://www.w3.org/Graphics/SVG/1.1/DTD/svg11.dtd"><!-- Generated by graphviz version 2.40.1 (20161225.0304)
 --><!-- Title: TestGraph Pages: 1 --><svg xmlns="http://www.w3.org/2000/svg" xmlns:xlink="http://www.w3.org/1999/xlink" width="815pt" height="116pt" viewBox="0.00 0.00 814.82 116.00">
<g id="graph0" class="graph" transform="scale(1 1) rotate(0) translate(4 112)">
<title>TestGraph</title>
<polygon fill="#ffffff" stroke="transparent" points="-4,4 -4,-112 810.8212,-112 810.8212,4 -4,4"/>
<!-- node0 -->
<g id="node1" class="node">
<title>node0</title>
<polygon fill="none" stroke="#000000" points="131.7321,-108 75.0891,-108 75.0891,-72 131.7321,-72 131.7321,-108"/>
<text text-anchor="middle" x="103.4106" y="-85.8" font-family="Times,serif" font-size="14.00" fill="#000000">Node 0</text>
</g>
<!-- node0_adj0 -->
<g id="node2" class="node">
<title>node0_adj0</title>
<polygon fill="none" stroke="#000000" points="56.7321,-36 .0891,-36 .0891,0 56.7321,0 56.7321,-36"/>
<text text-anchor="middle" x="28.4106" y="-13.8" font-family="Times,serif" font-size="14.00" fill="#000000">Node 1</text>
</g>
<!-- node0&#45;&gt;node0_adj0 -->
<g id="edge1" class="edge">
<title>node0-&gt;node0_adj0</title>
<path fill="none" stroke="#000000" d="M84.4849,-71.8314C75.4249,-63.1337 64.4297,-52.5783 54.5841,-43.1265"/>
<polygon fill="#000000" stroke="#000000" points="56.968,-40.5633 47.3302,-36.1628 52.1202,-45.613 56.968,-40.5633"/>
</g>
<!-- node0_adj1 -->
<g id="node3" class="node">
<title>node0_adj1</title>
<polygon fill="none" stroke="#000000" points="131.7321,-36 75.0891,-36 75.0891,0 131.7321,0 131.7321,-36"/>
<text text-anchor="middle" x="103.4106" y="-13.8" font-family="Times,serif" font-size="14.00" fill="#000000">Node 0</text>
</g>
<!-- node0&#45;&gt;node0_adj1 -->
<g id="edge2" class="edge">
<title>node0-&gt;node0_adj1</title>
<path fill="none" stroke="#000000" d="M103.4106,-71.8314C103.4106,-64.131 103.4106,-54.9743 103.4106,-46.4166"/>
<polygon fill="#000000" stroke="#000000" points="106.9107,-46.4132 103.4106,-36.4133 99.9107,-46.4133 106.9107,-46.4132"/>
</g>
<!-- node0_adj2 -->
<g id="node4" class="node">
<title>node0_adj2</title>
<polygon fill="none" stroke="#000000" points="206.7321,-36 150.0891,-36 150.0891,0 206.7321,0 206.7321,-36"/>
<text text-anchor="middle" x="178.4106" y="-13.8" font-family="Times,serif" font-size="14.00" fill="#000000">Node 3</text>
</g>
<!-- node0&#45;&gt;node0_adj2 -->
<g id="edge3" class="edge">
<title>node0-&gt;node0_adj2</title>
<path fill="none" stroke="#000000" d="M122.3363,-71.8314C131.3963,-63.1337 142.3915,-52.5783 152.2371,-43.1265"/>
<polygon fill="#000000" stroke="#000000" points="154.701,-45.613 159.491,-36.1628 149.8532,-40.5633 154.701,-45.613"/>
</g>
<!-- node1 -->
<g id="node5" class="node">
<title>node1</title>
<polygon fill="none" stroke="#000000" points="318.7321,-108 262.0891,-108 262.0891,-72 318.7321,-72 318.7321,-108"/>
<text text-anchor="middle" x="290.4106" y="-85.8" font-family="Times,serif" font-size="14.00" fill="#000000">Node 1</text>
</g>
<!-- node1_adj0 -->
<g id="node6" class="node">
<title>node1_adj0</title>
<polygon fill="none" stroke="#000000" points="281.7321,-36 225.0891,-36 225.0891,0 281.7321,0 281.7321,-36"/>
<text text-anchor="middle" x="253.4106" y="-13.8" font-family="Times,serif" font-size="14.00" fill="#000000">Node 0</text>
</g>
<!-- node1&#45;&gt;node1_adj0 -->
<g id="edge4" class="edge">
<title>node1-&gt;node1_adj0</title>
<path fill="none" stroke="#000000" d="M281.0739,-71.8314C276.9863,-63.8771 272.1002,-54.369 267.5797,-45.5723"/>
<polygon fill="#000000" stroke="#000000" points="270.5567,-43.7078 262.873,-36.4133 264.3307,-46.9074 270.5567,-43.7078"/>
</g>
<!-- node1_adj1 -->
<g id="node7" class="node">
<title>node1_adj1</title>
<polygon fill="none" stroke="#000000" points="356.7321,-36 300.0891,-36 300.0891,0 356.7321,0 356.7321,-36"/>
<text text-anchor="middle" x="328.4106" y="-13.8" font-family="Times,serif" font-size="14.00" fill="#000000">Node 2</text>
</g>
<!-- node1&#45;&gt;node1_adj1 -->
<g id="edge5" class="edge">
<title>node1-&gt;node1_adj1</title>
<path fill="none" stroke="#000000" d="M299.9996,-71.8314C304.2423,-63.7925 309.3227,-54.1666 314.0066,-45.2918"/>
<polygon fill="#000000" stroke="#000000" points="317.1202,-46.8908 318.6925,-36.4133 310.9295,-43.6235 317.1202,-46.8908"/>
</g>
<!-- node2 -->
<g id="node8" class="node">
<title>node2</title>
<polygon fill="none" stroke="#000000" points="506.7321,-108 450.0891,-108 450.0891,-72 506.7321,-72 506.7321,-108"/>
<text text-anchor="middle" x="478.4106" y="-85.8" font-family="Times,serif" font-size="14.00" fill="#000000">Node 2</text>
</g>
<!-- node2_adj0 -->
<g id="node9" class="node">
<title>node2_adj0</title>
<polygon fill="none" stroke="#000000" points="431.7321,-36 375.0891,-36 375.0891,0 431.7321,0 431.7321,-36"/>
<text text-anchor="middle" x="403.4106" y="-13.8" font-family="Times,serif" font-size="14.00" fill="#000000">Node 1</text>
</g>
<!-- node2&#45;&gt;node2_adj0 -->
<g id="edge6" class="edge">
<title>node2-&gt;node2_adj0</title>
<path fill="none" stroke="#000000" d="M459.4849,-71.8314C450.4249,-63.1337 439.4297,-52.5783 429.5841,-43.1265"/>
<polygon fill="#000000" stroke="#000000" points="431.968,-40.5633 422.3302,-36.1628 427.1202,-45.613 431.968,-40.5633"/>
</g>
<!-- node2_adj1 -->
<g id="node10" class="node">
<title>node2_adj1</title>
<polygon fill="none" stroke="#000000" points="506.7321,-36 450.0891,-36 450.0891,0 506.7321,0 506.7321,-36"/>
<text text-anchor="middle" x="478.4106" y="-13.8" font-family="Times,serif" font-size="14.00" fill="#000000">Node 4</text>
</g>
<!-- node2&#45;&gt;node2_adj1 -->
<g id="edge7" class="edge">
<title>node2-&gt;node2_adj1</title>
<path fill="none" stroke="#000000" d="M478.4106,-71.8314C478.4106,-64.131 478.4106,-54.9743 478.4106,-46.4166"/>
<polygon fill="#000000" stroke="#000000" points="481.9107,-46.4132 478.4106,-36.4133 474.9107,-46.4133 481.9107,-46.4132"/>
</g>
<!-- node2_adj2 -->
<g id="node11" class="node">
<title>node2_adj2</title>
<polygon fill="none" stroke="#000000" points="581.7321,-36 525.0891,-36 525.0891,0 581.7321,0 581.7321,-36"/>
<text text-anchor="middle" x="553.4106" y="-13.8" font-family="Times,serif" font-size="14.00" fill="#000000">Node 3</text>
</g>
<!-- node2&#45;&gt;node2_adj2 -->
<g id="edge8" class="edge">
<title>node2-&gt;node2_adj2</title>
<path fill="none" stroke="#000000" d="M497.3363,-71.8314C506.3963,-63.1337 517.3915,-52.5783 527.2371,-43.1265"/>
<polygon fill="#000000" stroke="#000000" points="529.701,-45.613 534.491,-36.1628 524.8532,-40.5633 529.701,-45.613"/>
</g>
<!-- node3 -->
<g id="node12" class="node">
<title>node3</title>
<polygon fill="none" stroke="#000000" points="693.7321,-108 637.0891,-108 637.0891,-72 693.7321,-72 693.7321,-108"/>
<text text-anchor="middle" x="665.4106" y="-85.8" font-family="Times,serif" font-size="14.00" fill="#000000">Node 3</text>
</g>
<!-- node3_adj0 -->
<g id="node13" class="node">
<title>node3_adj0</title>
<polygon fill="none" stroke="#000000" points="656.7321,-36 600.0891,-36 600.0891,0 656.7321,0 656.7321,-36"/>
<text text-anchor="middle" x="628.4106" y="-13.8" font-family="Times,serif" font-size="14.00" fill="#000000">Node 2</text>
</g>
<!-- node3&#45;&gt;node3_adj0 -->
<g id="edge9" class="edge">
<title>node3-&gt;node3_adj0</title>
<path fill="none" stroke="#000000" d="M656.0739,-71.8314C651.9863,-63.8771 647.1002,-54.369 642.5797,-45.5723"/>
<polygon fill="#000000" stroke="#000000" points="645.5567,-43.7078 637.873,-36.4133 639.3307,-46.9074 645.5567,-43.7078"/>
</g>
<!-- node3_adj1 -->
<g id="node14" class="node">
<title>node3_adj1</title>
<polygon fill="none" stroke="#000000" points="731.7321,-36 675.0891,-36 675.0891,0 731.7321,0 731.7321,-36"/>
<text text-anchor="middle" x="703.4106" y="-13.8" font-family="Times,serif" font-size="14.00" fill="#000000">Node 0</text>
</g>
<!-- node3&#45;&gt;node3_adj1 -->
<g id="edge10" class="edge">
<title>node3-&gt;node3_adj1</title>
<path fill="none" stroke="#000000" d="M674.9996,-71.8314C679.2423,-63.7925 684.3227,-54.1666 689.0066,-45.2918"/>
<polygon fill="#000000" stroke="#000000" points="692.1202,-46.8908 693.6925,-36.4133 685.9295,-43.6235 692.1202,-46.8908"/>
</g>
<!-- node4 -->
<g id="node15" class="node">
<title>node4</title>
<polygon fill="none" stroke="#000000" points="806.7321,-108 750.0891,-108 750.0891,-72 806.7321,-72 806.7321,-108"/>
<text text-anchor="middle" x="778.4106" y="-85.8" font-family="Times,serif" font-size="14.00" fill="#000000">Node 3</text>
</g>
<!-- node4_adj0 -->
<g id="node16" class="node">
<title>node4_adj0</title>
<polygon fill="none" stroke="#000000" points="806.7321,-36 750.0891,-36 750.0891,0 806.7321,0 806.7321,-36"/>
<text text-anchor="middle" x="778.4106" y="-13.8" font-family="Times,serif" font-size="14.00" fill="#000000">Node 2</text>
</g>
<!-- node4&#45;&gt;node4_adj0 -->
<g id="edge11" class="edge">
<title>node4-&gt;node4_adj0</title>
<path fill="none" stroke="#000000" d="M778.4106,-71.8314C778.4106,-64.131 778.4106,-54.9743 778.4106,-46.4166"/>
<polygon fill="#000000" stroke="#000000" points="781.9107,-46.4132 778.4106,-36.4133 774.9107,-46.4133 781.9107,-46.4132"/>
</g>
</g>
</svg>