<?xml version="1.0" encoding="UTF-8" standalone="no"?><!DOCTYPE svg PUBLIC "-//W3C//DTD SVG 1.1//EN" "http://www.w3.org/Graphics/SVG/1.1/DTD/svg11.dtd"><!-- Generated by graphviz version 2.40.1 (20161225.0304)
 --><!-- Title: TestGraph Pages: 1 --><svg xmlns="http://www.w3.org/2000/svg" xmlns:xlink="http://www.w3.org/1999/xlink" width="111pt" height="133pt" viewBox="0.00 0.00 111.39 132.80">
<g id="graph0" class="graph" transform="scale(1 1) rotate(0) translate(4 128.8)">
<title>TestGraph</title>
<polygon fill="#ffffff" stroke="transparent" points="-4,4 -4,-128.8 107.3885,-128.8 107.3885,4 -4,4"/>
<!-- 1 -->
<g id="node1" class="node">
<title>1</title>
<ellipse fill="none" stroke="#000000" cx="39.1942" cy="-106.8" rx="39.3894" ry="18"/>
<text text-anchor="middle" x="39.1942" y="-102.6" font-family="Times,serif" font-size="14.00" fill="#000000">Node 0</text>
</g>
<!-- 1&#45;&gt;1 -->
<g id="edge2" class="edge">
<title>1-&gt;1</title>
<path fill="none" stroke="#000000" d="M74.099,-115.0455C86.404,-115.1774 96.3885,-112.4289 96.3885,-106.8 96.3885,-102.8422 91.4523,-100.3084 84.2441,-99.1986"/>
<polygon fill="#000000" stroke="#000000" points="84.3007,-95.6953 74.099,-98.5545 83.8571,-102.6812 84.3007,-95.6953"/>
<text text-anchor="middle" x="99.8885" y="-102.6" font-family="Times,serif" font-size="14.00" fill="#000000">1</text>
</g>
<!-- 2 -->
<g id="node2" class="node">
<title>2</title>
<ellipse fill="none" stroke="#000000" cx="39.1942" cy="-18" rx="39.3894" ry="18"/>
<text text-anchor="middle" x="39.1942" y="-13.8" font-family="Times,serif" font-size="14.00" fill="#000000">Node 1</text>
</g>
<!-- 1&#45;&gt;2 -->
<g id="edge1" class="edge">
<title>1-&gt;2</title>
<path fill="none" stroke="#000000" d="M39.1942,-88.4006C39.1942,-76.2949 39.1942,-60.2076 39.1942,-46.4674"/>
<polygon fill="#000000" stroke="#000000" points="42.6943,-46.072 39.1942,-36.072 35.6943,-46.0721 42.6943,-46.072"/>
<text text-anchor="middle" x="42.6942" y="-58.2" font-family="Times,serif" font-size="14.00" fill="#000000">5</text>
</g>
</g>
</svg>