<?xml version="1.0" encoding="UTF-8" standalone="no"?><!DOCTYPE svg PUBLIC "-//W3C//DTD SVG 1.1//EN" "http://www.w3.org/Graphics/SVG/1.1/DTD/svg11.dtd"><!-- Generated by graphviz version 2.40.1 (20161225.0304)
 --><!-- Title: TestGraph Pages: 1 --><svg xmlns="http://www.w3.org/2000/svg" xmlns:xlink="http://www.w3.org/1999/xlink" width="182pt" height="260pt" viewBox="0.00 0.00 182.39 260.00">
<g id="graph0" class="graph" transform="scale(1 1) rotate(0) translate(4 256)">
<title>TestGraph</title>
<polygon fill="#ffffff" stroke="transparent" points="-4,4 -4,-256 178.3885,-256 178.3885,4 -4,4"/>
<!-- 1 -->
<g id="node1" class="node">
<title>1</title>
<ellipse fill="none" stroke="#000000" cx="101.1942" cy="-234" rx="39.3894" ry="18"/>
<text text-anchor="middle" x="101.1942" y="-229.8" font-family="Times,serif" font-size="14.00" fill="#000000">Node 0</text>
</g>
<!-- 1&#45;&#45;1 -->
<g id="edge2" class="edge">
<title>1--1</title>
<path fill="none" stroke="#000000" d="M128.8538,-246.854C144.2295,-249.2534 158.3885,-244.9688 158.3885,-234 158.3885,-223.0313 144.2295,-218.7466 128.8538,-221.146"/>
</g>
<!-- 2 -->
<g id="node2" class="node">
<title>2</title>
<ellipse fill="none" stroke="#000000" cx="68.1942" cy="-162" rx="39.3894" ry="18"/>
<text text-anchor="middle" x="68.1942" y="-157.8" font-family="Times,serif" font-size="14.00" fill="#000000">Node 1</text>
</g>
<!-- 1&#45;&#45;2 -->
<g id="edge1" class="edge">
<title>1--2</title>
<path fill="none" stroke="#000000" d="M93.0369,-216.2022C87.9599,-205.1252 81.4529,-190.928 76.3721,-179.8425"/>
</g>
<!-- 4 -->
<g id="node4" class="node">
<title>4</title>
<ellipse fill="none" stroke="#000000" cx="135.1942" cy="-18" rx="39.3894" ry="18"/>
<text text-anchor="middle" x="135.1942" y="-13.8" font-family="Times,serif" font-size="14.00" fill="#000000">Node 3</text>
</g>
<!-- 1&#45;&#45;4 -->
<g id="edge3" class="edge">
<title>1--4</title>
<path fill="none" stroke="#000000" d="M106.8948,-216.1658C110.0451,-205.7211 113.7951,-192.2211 116.1942,-180 126.3406,-128.3155 131.773,-66.2163 133.9852,-36.1202"/>
</g>
<!-- 3 -->
<g id="node3" class="node">
<title>3</title>
<ellipse fill="none" stroke="#000000" cx="68.1942" cy="-90" rx="39.3894" ry="18"/>
<text text-anchor="middle" x="68.1942" y="-85.8" font-family="Times,serif" font-size="14.00" fill="#000000">Node 2</text>
</g>
<!-- 2&#45;&#45;3 -->
<g id="edge4" class="edge">
<title>2--3</title>
<path fill="none" stroke="#000000" d="M68.1942,-143.8314C68.1942,-133 68.1942,-119.2876 68.1942,-108.4133"/>
</g>
<!-- 3&#45;&#45;4 -->
<g id="edge5" class="edge">
<title>3--4</title>
<path fill="none" stroke="#000000" d="M83.7338,-73.3008C94.5578,-61.669 108.9334,-46.2206 119.7389,-34.6087"/>
</g>
<!-- 5 -->
<g id="node5" class="node">
<title>5</title>
<ellipse fill="none" stroke="#000000" cx="39.1942" cy="-18" rx="39.3894" ry="18"/>
<text text-anchor="middle" x="39.1942" y="-13.8" font-family="Times,serif" font-size="14.00" fill="#000000">Node 4</text>
</g>
<!-- 3&#45;&#45;5 -->
<g id="edge6" class="edge">
<title>3--5</title>
<path fill="none" stroke="#000000" d="M61.0257,-72.2022C56.5641,-61.1252 50.8458,-46.928 46.3808,-35.8425"/>
</g>
</g>
</svg>