<?xml version="1.0" encoding="UTF-8" standalone="no"?>
<!DOCTYPE svg PUBLIC "-//W3C//DTD SVG 1.1//EN"
 "http://www.w3.org/Graphics/SVG/1.1/DTD/svg11.dtd">
<!-- Generated by graphviz version 2.43.0 (0)
 -->
<!-- Title: test Pages: 1 -->
<svg width="207pt" height="218pt"
 viewBox="0.00 0.00 207.39 218.00" xmlns="http://www.w3.org/2000/svg" xmlns:xlink="http://www.w3.org/1999/xlink">
<g id="graph0" class="graph" transform="scale(1 1) rotate(0) translate(4 214)">
<title>test</title>
<polygon fill="white" stroke="transparent" points="-4,4 -4,-214 203.39,-214 203.39,4 -4,4"/>
<!-- 1 -->
<g id="node1" class="node">
<title>1</title>
<ellipse fill="none" stroke="black" cx="97.2" cy="-192" rx="44.39" ry="18"/>
<text text-anchor="middle" x="97.2" y="-188.3" font-family="Times,serif" font-size="14.00">Node 1</text>
</g>
<!-- 2 -->
<g id="node2" class="node">
<title>2</title>
<ellipse fill="none" stroke="black" cx="97.2" cy="-105" rx="44.39" ry="18"/>
<text text-anchor="middle" x="97.2" y="-101.3" font-family="Times,serif" font-size="14.00">Node 2</text>
</g>
<!-- 1&#45;&#45;2 -->
<g id="edge1" class="edge">
<title>1&#45;&#45;2</title>
<path fill="none" stroke="black" d="M97.2,-173.8C97.2,-159.05 97.2,-137.92 97.2,-123.18"/>
<text text-anchor="middle" x="117.2" y="-144.8" font-family="Times,serif" font-size="14.00">Link1</text>
</g>
<!-- 2&#45;&#45;2 -->
<g id="edge3" class="edge">
<title>2&#45;&#45;2</title>
<path fill="none" stroke="black" d="M136.98,-112.87C149.51,-112.75 159.39,-110.13 159.39,-105 159.39,-99.87 149.51,-97.25 136.98,-97.13"/>
<text text-anchor="middle" x="179.39" y="-101.3" font-family="Times,serif" font-size="14.00">Link3</text>
</g>
<!-- 3 -->
<g id="node3" class="node">
<title>3</title>
<ellipse fill="none" stroke="black" cx="44.2" cy="-18" rx="44.39" ry="18"/>
<text text-anchor="middle" x="44.2" y="-14.3" font-family="Times,serif" font-size="14.00">Node 3</text>
</g>
<!-- 2&#45;&#45;3 -->
<g id="edge2" class="edge">
<title>2&#45;&#45;3</title>
<path fill="none" stroke="black" d="M86.72,-87.21C77.43,-72.31 63.93,-50.65 54.65,-35.76"/>
<text text-anchor="middle" x="94.2" y="-57.8" font-family="Times,serif" font-size="14.00">Link2</text>
</g>
<!-- 4 -->
<g id="node4" class="node">
<title>4</title>
<ellipse fill="none" stroke="black" cx="150.2" cy="-18" rx="44.39" ry="18"/>
<text text-anchor="middle" x="150.2" y="-14.3" font-family="Times,serif" font-size="14.00">Node 4</text>
</g>
<!-- 2&#45;&#45;4 -->
<g id="edge4" class="edge">
<title>2&#45;&#45;4</title>
<path fill="none" stroke="black" d="M107.67,-87.21C116.96,-72.31 130.46,-50.65 139.75,-35.76"/>
<text text-anchor="middle" x="146.2" y="-57.8" font-family="Times,serif" font-size="14.00">Link4</text>
</g>
</g>
</svg>
